<?xml version="1.0" standalone="no"?>
<!DOCTYPE svg PUBLIC "-//W3C//DTD SVG 20010904//EN"
 "http://www.w3.org/TR/2001/REC-SVG-20010904/DTD/svg10.dtd">
<svg version="1.0" xmlns="http://www.w3.org/2000/svg"
 width="2216.000000pt" height="2216.000000pt" viewBox="0 0 2216.000000 2216.000000"
 preserveAspectRatio="xMidYMid meet">
<metadata>
Created by potrace 1.14, written by Peter Selinger 2001-2017
</metadata>
<g transform="translate(0.000000,2216.000000) scale(0.100000,-0.100000)"
fill="#000000" stroke="none">
<path d="M10649 22156 c-2 -2 -77 -7 -167 -10 -90 -4 -173 -9 -185 -11 -12 -2
-62 -6 -112 -10 -113 -8 -205 -17 -330 -30 -36 -4 -261 -33 -310 -40 -83 -11
-138 -20 -265 -41 -80 -14 -158 -27 -175 -30 -16 -2 -129 -25 -250 -49 -726
-146 -1502 -394 -2210 -707 -310 -136 -777 -373 -1005 -508 -30 -18 -75 -44
-100 -58 -107 -60 -370 -225 -560 -353 -690 -462 -1291 -969 -1875 -1580 -76
-81 -131 -140 -260 -284 -49 -54 -85 -96 -160 -185 -44 -52 -82 -97 -85 -100
-22 -20 -263 -330 -381 -490 -861 -1169 -1480 -2484 -1833 -3895 -60 -243
-138 -614 -161 -770 -4 -22 -8 -47 -10 -55 -5 -16 -40 -243 -50 -320 -3 -25
-10 -76 -15 -115 -16 -118 -19 -145 -34 -300 -14 -135 -21 -218 -31 -355 -27
-359 -27 -1363 0 -1565 2 -16 6 -67 9 -112 5 -72 13 -159 32 -338 2 -27 7 -63
9 -80 2 -16 7 -52 10 -80 5 -48 41 -302 50 -355 107 -651 243 -1207 436 -1785
100 -298 244 -675 330 -863 16 -34 29 -65 29 -67 0 -3 18 -44 40 -91 22 -47
40 -88 40 -90 0 -9 242 -496 301 -604 179 -334 436 -755 651 -1065 106 -154
332 -461 408 -555 161 -199 376 -457 419 -501 9 -9 50 -54 91 -100 227 -252
580 -602 856 -845 1493 -1321 3284 -2203 5229 -2573 230 -44 581 -98 750 -116
33 -4 71 -8 85 -10 14 -2 57 -7 95 -10 39 -4 86 -8 105 -10 19 -3 78 -7 130
-10 52 -3 104 -8 115 -10 134 -27 1161 -27 1540 -1 189 13 318 25 455 41 19 3
76 9 125 15 223 26 618 89 786 126 41 8 85 17 99 20 58 10 187 39 355 79 685
165 1309 382 2020 703 150 68 600 299 787 405 1026 581 1982 1345 2753 2202
44 48 89 98 100 111 49 54 78 88 196 229 660 790 1180 1622 1619 2590 278 612
550 1434 695 2100 34 156 92 448 100 505 3 25 8 52 10 60 2 8 6 31 9 50 3 19
12 78 20 130 8 52 18 118 21 145 3 28 8 61 10 75 3 14 7 48 10 75 3 28 10 88
16 135 17 146 26 235 34 355 4 44 8 97 10 118 27 263 27 1265 0 1562 -2 22 -6
81 -10 130 -11 156 -25 291 -61 570 -2 22 -7 58 -10 80 -4 33 -30 202 -50 320
-25 153 -82 440 -119 605 -31 132 -96 394 -106 425 -10 33 -72 250 -94 330
-52 193 -281 831 -365 1020 -5 11 -36 83 -68 160 -127 297 -325 699 -477 970
-37 66 -79 140 -93 165 -327 580 -883 1350 -1329 1840 -17 19 -41 46 -53 60
-145 168 -561 584 -780 780 -52 47 -102 91 -110 99 -146 139 -677 561 -895
712 -27 19 -54 38 -60 42 -34 29 -348 237 -500 332 -827 517 -1688 909 -2625
1195 -461 141 -1066 280 -1455 335 -23 3 -52 7 -65 10 -13 2 -58 9 -99 15 -42
6 -87 12 -101 15 -24 4 -177 21 -270 31 -25 2 -56 6 -70 9 -14 2 -65 7 -115
11 -49 3 -102 7 -116 9 -14 2 -77 6 -140 10 -63 4 -130 9 -149 12 -43 5 -1035
14 -1041 9z"/>
</g>
</svg>
